<?xml version="1.0" encoding="utf-8"?>
<!-- Generator: Adobe Illustrator 19.1.0, SVG Export Plug-In . SVG Version: 6.00 Build 0)  -->
<svg version="1.1" id="Layer_1" xmlns="http://www.w3.org/2000/svg" xmlns:xlink="http://www.w3.org/1999/xlink" x="0px" y="0px"
	 viewBox="0 0 198.7 189.5" style="enable-background:new 0 0 198.7 189.5;" xml:space="preserve">
<style type="text/css">
	.st0{fill:#FFFFFF;stroke:#FFFFFF;stroke-width:6;stroke-miterlimit:10;}
	.st1{fill:#140203;}
	.st2{fill:#FFFFFF;}
	.st3{fill:#1C75BC;stroke:#1C75BC;stroke-width:6;stroke-miterlimit:10;}
</style>
<g>
	<g>
		<path class="st0" d="M99.4,156.3c-34.1,0-61.8-27.7-61.8-61.8c0-34.1,27.7-61.8,61.8-61.8c34.1,0,61.8,27.7,61.8,61.8
			C161.2,128.6,133.5,156.3,99.4,156.3z M99.4,47.4c-25.9,0-47.1,21.1-47.1,47.1c0,25.9,21.1,47.1,47.1,47.1
			c25.9,0,47.1-21.1,47.1-47.1C146.4,68.5,125.3,47.4,99.4,47.4z"/>
	</g>
	<g>
		<path class="st1" d="M79.4,44.6c-6.7,2.7-12.7,6.7-17.8,11.8c-5.1,5.1-9.1,11.1-11.8,17.8c-2.6,6.5-3.9,13.3-3.9,20.3
			c0,7,1.3,13.8,3.9,20.3c2.7,6.7,6.7,12.7,11.8,17.8c5.1,5.1,11.1,9.1,17.8,11.8c6.5,2.6,13.3,3.9,20.3,3.9c7,0,13.8-1.3,20.3-3.9
			c6.7-2.7,12.7-6.7,17.8-11.8c5.1-5.1,9.1-11.1,11.8-17.8c2.6-6.4,3.9-13.3,3.9-20.3c0-7-1.3-13.8-3.9-20.3
			c-2.7-6.7-6.7-12.7-11.8-17.8c-5.1-5.1-11.1-9.1-17.8-11.8c-6.5-2.6-13.3-3.9-20.3-3.9C92.7,40.7,85.9,42,79.4,44.6z"/>
		<path class="st2" d="M59.3,117.2c-2.6-1.6-5-3.5-7.1-5.7c-3.2-9.1-3.8-18.9-1.6-28.3c1-2,2.2-3.9,3.4-5.7c0.4-0.6,0.8-1.2,1.2-1.7
			l12.1,7.2c0,0.1,0,0.2,0,0.3c0,6.5,0.6,13,2,19.4c0,0,0,0,0,0.1l-9.4,14.8C59.7,117.4,59.5,117.3,59.3,117.2z"/>
		<path class="st2" d="M95.4,142.1c2.1,1.1,4.3,2,6.5,2.7c-9.4,0.4-18.9-1.8-27.3-6.6l20.4,3.6C95.1,142,95.3,142,95.4,142.1z"/>
		<path class="st2" d="M95.3,138.5l-24-4.3c-2.8-3.4-5.3-7-7.5-10.9c-0.6-1-1.2-1.9-1.6-3l9.4-14.8c0.2,0.1,0.4,0.1,0.7,0.2
			c5.9,1.6,11.9,2.7,17.9,3.6c0.4,0,0.6,0.1,0.9,0.1l11.3,19.5c-2,2.8-3.9,5.5-6,8.2C96.1,137.6,95.7,138,95.3,138.5z"/>
		<path class="st2" d="M135.3,130.1c-1.9,1.9-3.9,3.6-6.1,5.2c-0.4-2.8-1-5.6-1.8-8.3l12-22.5c3.3-1.5,6.5-3.2,9.5-5.3
			c0.4-0.3,0.7-0.6,1-0.9C149.1,109.9,144.2,121.3,135.3,130.1z"/>
		<path class="st2" d="M134.8,101c0.4,0.9,0.9,1.7,1.3,2.6l-11.6,21.7c-0.1,0-0.1,0-0.2,0c-6.3,1.2-12.6,1.8-19,1.8l-11.6-20.1
			c1.8-3.4,3.6-6.7,5.4-10.1c1.2-2.3,2.4-4.6,3.6-6.9l24-2.5C129.6,92,132.4,96.4,134.8,101z"/>
		<path class="st2" d="M129.9,75.3c-1.1,3-2.4,6-3.6,9L103,86.7c-0.3-0.4-0.6-0.7-0.9-1.1c-2.8-3.1-5.5-6.2-8.3-9.4
			c0,0,0.1-0.1,0.1-0.1c-1.1-1.1-2.2-2.2-3.4-3.4L97,53.2c0.4-0.1,0.9-0.2,1.4-0.3c3.5-0.4,7.1-0.8,10.6-1c2.2-0.1,4.4-0.2,6.6,0
			l16.1,18.2C131.1,71.8,130.6,73.6,129.9,75.3z"/>
		<path class="st2" d="M135.3,58.8c4.4,4.4,7.9,9.5,10.3,14.9c-3-2.1-6.2-3.8-9.6-5.2c-0.5-0.2-1.1-0.4-1.6-0.6l-15.9-17.9
			c0.1-0.8,0.2-1.5,0.2-2.3C124.8,50.3,130.4,54,135.3,58.8z"/>
		<path class="st2" d="M83.5,46.9c0.1,0,0.1,0.1,0.1,0.1c3.6,1.3,6.9,3.1,10,5.3l-6.1,18.3c0,0-0.1,0-0.1,0c-1.2,0.5-2.5,1-3.7,1.5
			c-5.1,2.3-10,4.8-14.6,7.9l-12-7.1c0-0.4,0.1-0.8,0.2-1.1c0.8-2.1,1.6-4.3,2.5-6.4c0.7-1.6,1.5-3.2,2.4-4.7
			c0.6-0.6,1.2-1.3,1.8-1.9c5.7-5.7,12.4-9.7,19.6-12.1C83.6,46.8,83.6,46.8,83.5,46.9z"/>
	</g>
	<g>
		<path class="st3" d="M99.4,175.3c-44.4,0-80.5-36.1-80.5-80.5c0-44.4,36.1-80.5,80.5-80.5c44.4,0,80.5,36.1,80.5,80.5
			C179.9,139.1,143.8,175.3,99.4,175.3z M99.4,33.5c-33.8,0-61.3,27.5-61.3,61.3c0,33.8,27.5,61.3,61.3,61.3
			c33.8,0,61.3-27.5,61.3-61.3C160.6,61,133.2,33.5,99.4,33.5z"/>
	</g>
</g>
</svg>
